<svg width="146" height="25" viewBox="0 0 146 25" fill="none" xmlns="http://www.w3.org/2000/svg">
<path d="M29.5938 21.7372V2.96523H33.2807V10.8757L32.8383 10.2806C33.1496 9.47053 33.6494 8.87538 34.3376 8.49514C35.0423 8.09838 35.8616 7.9 36.7956 7.9C37.8116 7.9 38.6964 8.11491 39.4502 8.54474C40.2204 8.97457 40.8185 9.57798 41.2445 10.355C41.6706 11.1155 41.8836 12.0082 41.8836 13.0331V21.7372H38.1967V13.8267C38.1967 13.2977 38.0901 12.843 37.8771 12.4628C37.6805 12.0826 37.3937 11.785 37.0168 11.5701C36.6563 11.3552 36.2303 11.2477 35.7387 11.2477C35.2635 11.2477 34.8374 11.3552 34.4605 11.5701C34.0836 11.785 33.7887 12.0826 33.5757 12.4628C33.379 12.843 33.2807 13.2977 33.2807 13.8267V21.7372H29.5938Z" fill="#0F172A"/>
<path d="M47.9704 22.0348C47.0036 22.0348 46.1678 21.8777 45.4632 21.5636C44.7586 21.2495 44.2179 20.8031 43.841 20.2245C43.4641 19.6294 43.2756 18.9268 43.2756 18.1167C43.2756 17.3562 43.4477 16.6867 43.7918 16.1081C44.1359 15.5129 44.6603 15.017 45.3649 14.6202C46.0859 14.2234 46.979 13.9424 48.0441 13.7771L52.1489 13.1075V15.8353L48.7078 16.4553C48.1834 16.5544 47.7819 16.728 47.5033 16.976C47.2248 17.2075 47.0855 17.5464 47.0855 17.9927C47.0855 18.406 47.2412 18.7284 47.5525 18.9598C47.8638 19.1913 48.2489 19.307 48.7078 19.307C49.3141 19.307 49.8466 19.1747 50.3054 18.9102C50.7643 18.6457 51.1166 18.2903 51.3624 17.8439C51.6245 17.381 51.7556 16.8768 51.7556 16.3313V12.81C51.7556 12.2975 51.5508 11.8677 51.1411 11.5205C50.7479 11.1733 50.2071 10.9997 49.5189 10.9997C48.8634 10.9997 48.2817 11.1816 47.7737 11.5453C47.2821 11.909 46.9216 12.3884 46.6922 12.9836L43.7426 11.5701C44.0048 10.8096 44.4227 10.1566 44.9962 9.61105C45.5697 9.06549 46.258 8.64393 47.0609 8.34636C47.8638 8.04878 48.7405 7.9 49.6909 7.9C50.8216 7.9 51.8212 8.10664 52.6897 8.51994C53.5582 8.93324 54.23 9.51186 54.7052 10.2558C55.1968 10.9832 55.4426 11.8346 55.4426 12.81V21.7372H52.0014V19.555L52.8371 19.4062C52.4439 20.0013 52.0096 20.4973 51.5344 20.8941C51.0592 21.2743 50.5267 21.5553 49.9367 21.7372C49.3468 21.9356 48.6914 22.0348 47.9704 22.0348Z" fill="#0F172A"/>
<path d="M62.915 22.0348C61.4402 22.0348 60.1539 21.6876 59.056 20.9933C57.9745 20.2824 57.2371 19.3318 56.8438 18.1415L59.5476 16.852C59.8917 17.5794 60.3587 18.1498 60.9486 18.5631C61.5386 18.9764 62.194 19.183 62.915 19.183C63.4394 19.183 63.8409 19.0756 64.1194 18.8606C64.398 18.6457 64.5373 18.3482 64.5373 17.9679C64.5373 17.7695 64.4881 17.6042 64.3898 17.472C64.2915 17.3232 64.144 17.1909 63.9474 17.0752C63.7507 16.9595 63.5049 16.8603 63.21 16.7776L60.9241 16.1329C59.8262 15.8188 58.9823 15.3146 58.3924 14.6202C57.8024 13.9093 57.5075 13.0745 57.5075 12.1156C57.5075 11.2725 57.7205 10.5368 58.1466 9.90862C58.5726 9.28041 59.1707 8.79272 59.9409 8.44555C60.711 8.08185 61.5959 7.9 62.5955 7.9C63.9064 7.9 65.0535 8.2141 66.0367 8.84231C67.0362 9.45399 67.7408 10.3219 68.1505 11.4461L65.4222 12.7356C65.2255 12.1735 64.865 11.7271 64.3407 11.3965C63.8327 11.0493 63.2509 10.8757 62.5955 10.8757C62.1203 10.8757 61.7434 10.9749 61.4648 11.1733C61.2026 11.3717 61.0715 11.6445 61.0715 11.9916C61.0715 12.1735 61.1207 12.3388 61.219 12.4876C61.3173 12.6364 61.473 12.7686 61.686 12.8844C61.9155 13.0001 62.194 13.1075 62.5218 13.2067L64.6602 13.8515C65.7745 14.1821 66.6266 14.6863 67.2165 15.3641C67.8064 16.0254 68.1014 16.8438 68.1014 17.8191C68.1014 18.6623 67.8801 19.3979 67.4377 20.0261C67.0116 20.6544 66.4135 21.1503 65.6434 21.514C64.8732 21.8612 63.9638 22.0348 62.915 22.0348Z" fill="#0F172A"/>
<path d="M69.8133 21.7372V2.96523H73.5002V10.8757L73.0578 10.2806C73.3692 9.47053 73.8689 8.87538 74.5572 8.49514C75.2618 8.09838 76.0811 7.9 77.0151 7.9C78.0311 7.9 78.916 8.11491 79.6698 8.54474C80.4399 8.97457 81.038 9.57798 81.4641 10.355C81.8901 11.1155 82.1032 12.0082 82.1032 13.0331V21.7372H78.4162V13.8267C78.4162 13.2977 78.3097 12.843 78.0967 12.4628C77.9 12.0826 77.6133 11.785 77.2364 11.5701C76.8759 11.3552 76.4498 11.2477 75.9582 11.2477C75.483 11.2477 75.057 11.3552 74.6801 11.5701C74.3032 11.785 74.0082 12.0826 73.7952 12.4628C73.5986 12.843 73.5002 13.2977 73.5002 13.8267V21.7372H69.8133Z" fill="#0F172A"/>
<path d="M84.0359 21.7372V8.19757H87.4771V10.8757L87.2804 10.2806C87.5918 9.47053 88.0916 8.87538 88.7798 8.49514C89.4844 8.09838 90.3038 7.9 91.2378 7.9C92.2537 7.9 93.1386 8.11491 93.8924 8.54474C94.6626 8.97457 95.2607 9.57798 95.6867 10.355C96.1128 11.1155 96.3258 12.0082 96.3258 13.0331V21.7372H92.6388V13.8267C92.6388 13.2977 92.5323 12.843 92.3193 12.4628C92.1227 12.0826 91.8359 11.785 91.459 11.5701C91.0985 11.3552 90.6724 11.2477 90.1809 11.2477C89.7056 11.2477 89.2796 11.3552 88.9027 11.5701C88.5258 11.785 88.2309 12.0826 88.0178 12.4628C87.8212 12.843 87.7229 13.2977 87.7229 13.8267V21.7372H84.0359Z" fill="#0F172A"/>
<path d="M104.92 22.0348C103.592 22.0348 102.38 21.7289 101.282 21.1172C100.2 20.5056 99.3319 19.6707 98.6764 18.6127C98.0373 17.5381 97.7178 16.323 97.7178 14.9674C97.7178 13.5952 98.0373 12.3801 98.6764 11.3221C99.3319 10.2641 100.2 9.4292 101.282 8.81752C102.38 8.20584 103.592 7.9 104.92 7.9C106.247 7.9 107.451 8.20584 108.533 8.81752C109.614 9.4292 110.475 10.2641 111.114 11.3221C111.769 12.3801 112.097 13.5952 112.097 14.9674C112.097 16.323 111.769 17.5381 111.114 18.6127C110.475 19.6707 109.614 20.5056 108.533 21.1172C107.451 21.7289 106.247 22.0348 104.92 22.0348ZM104.92 18.6871C105.592 18.6871 106.173 18.53 106.665 18.2159C107.173 17.9018 107.566 17.4637 107.845 16.9016C108.14 16.3395 108.287 15.6948 108.287 14.9674C108.287 14.24 108.14 13.6035 107.845 13.0579C107.566 12.4959 107.173 12.0578 106.665 11.7437C106.173 11.413 105.592 11.2477 104.92 11.2477C104.248 11.2477 103.658 11.413 103.15 11.7437C102.642 12.0578 102.24 12.4959 101.946 13.0579C101.667 13.6035 101.528 14.24 101.528 14.9674C101.528 15.6948 101.667 16.3395 101.946 16.9016C102.24 17.4637 102.642 17.9018 103.15 18.2159C103.658 18.53 104.248 18.6871 104.92 18.6871Z" fill="#0F172A"/>
<path d="M120.094 22.0348C118.783 22.0348 117.612 21.7207 116.579 21.0925C115.547 20.4642 114.728 19.6128 114.122 18.5383C113.532 17.4637 113.237 16.2734 113.237 14.9674C113.237 13.6448 113.54 12.4545 114.146 11.3965C114.752 10.3219 115.572 9.47053 116.604 8.84231C117.636 8.2141 118.792 7.9 120.07 7.9C121.053 7.9 121.921 8.09011 122.675 8.47035C123.445 8.83405 124.052 9.3548 124.494 10.0326L123.929 10.7765V2.96523H127.616V21.7372H124.175V19.2574L124.519 20.0261C124.06 20.6874 123.437 21.1916 122.651 21.5388C121.864 21.8694 121.012 22.0348 120.094 22.0348ZM120.537 18.6871C121.209 18.6871 121.799 18.53 122.307 18.2159C122.815 17.9018 123.208 17.4637 123.486 16.9016C123.781 16.3395 123.929 15.6948 123.929 14.9674C123.929 14.24 123.781 13.5952 123.486 13.0331C123.208 12.4711 122.815 12.033 122.307 11.7189C121.799 11.4048 121.209 11.2477 120.537 11.2477C119.865 11.2477 119.259 11.413 118.718 11.7437C118.194 12.0578 117.784 12.4959 117.489 13.0579C117.194 13.6035 117.046 14.24 117.046 14.9674C117.046 15.6948 117.194 16.3395 117.489 16.9016C117.784 17.4637 118.194 17.9018 118.718 18.2159C119.259 18.53 119.865 18.6871 120.537 18.6871Z" fill="#0F172A"/>
<path d="M136.289 22.0348C134.863 22.0348 133.626 21.7207 132.577 21.0925C131.529 20.4477 130.717 19.588 130.144 18.5135C129.57 17.4389 129.284 16.2486 129.284 14.9426C129.284 13.587 129.579 12.3801 130.168 11.3221C130.775 10.2641 131.586 9.4292 132.602 8.81752C133.618 8.20584 134.765 7.9 136.043 7.9C137.108 7.9 138.05 8.07358 138.87 8.42075C139.689 8.75139 140.377 9.22255 140.934 9.83423C141.508 10.4459 141.942 11.1568 142.237 11.9668C142.532 12.7604 142.679 13.6283 142.679 14.5706C142.679 14.8351 142.663 15.0996 142.63 15.3641C142.614 15.6121 142.573 15.827 142.507 16.0089H132.454V13.2811H140.418L138.673 14.5706C138.837 13.8597 138.829 13.2315 138.648 12.686C138.468 12.1239 138.149 11.6858 137.69 11.3717C137.247 11.0411 136.698 10.8757 136.043 10.8757C135.404 10.8757 134.855 11.0328 134.396 11.3469C133.937 11.661 133.593 12.1239 133.364 12.7356C133.134 13.3473 133.044 14.0912 133.093 14.9674C133.028 15.7278 133.118 16.3974 133.364 16.976C133.61 17.5546 133.986 18.0093 134.494 18.3399C135.002 18.654 135.617 18.811 136.338 18.811C136.993 18.811 137.551 18.6788 138.009 18.4143C138.485 18.1498 138.853 17.7861 139.115 17.3232L142.065 18.7367C141.803 19.3979 141.385 19.9765 140.811 20.4725C140.254 20.9685 139.591 21.357 138.82 21.638C138.05 21.9025 137.206 22.0348 136.289 22.0348Z" fill="#0F172A"/>
<path fill-rule="evenodd" clip-rule="evenodd" d="M1.6335 8.51989C-0.544501 10.718 -0.544497 14.282 1.6335 16.4801L7.94634 22.8514C10.1243 25.0495 13.6556 25.0495 15.8336 22.8514L22.1464 16.4801C24.3244 14.282 24.3244 10.718 22.1464 8.51988L15.8336 2.14861C13.6556 -0.0495409 10.1243 -0.0495368 7.94634 2.14862L1.6335 8.51989ZM11.8899 16.4414C14.0466 16.4414 15.795 14.6768 15.795 12.5002C15.795 10.3235 14.0466 8.55896 11.8899 8.55896C9.73319 8.55896 7.98483 10.3235 7.98483 12.5002C7.98483 14.6768 9.73319 16.4414 11.8899 16.4414Z" fill="#2563EB"/>
</svg>
